<svg id="图层_1" data-name="图层 1" xmlns="http://www.w3.org/2000/svg" viewBox="0 0 1180.36 250"><defs><style>.cls-1{fill:#2f5597;}.cls-2{fill:#4471c4;}.cls-3{fill:#8faadc;}</style></defs><title>botlog_logo</title><path class="cls-1" d="M81.7,63.4c94.73,2.07,104.64,86.06,105.68,104.8a3.5,3.5,0,0,1-3.5,3.68H159.69a3.5,3.5,0,0,1-3.5-3.4c-2-65.43-60.35-73.57-74.84-74.59a3.46,3.46,0,0,1-3.24-3.46V66.91A3.51,3.51,0,0,1,81.7,63.4Z" transform="translate(0.02 -0.01)"/><path class="cls-2" d="M81.6,63.38c149,1.25,166.16,82.48,168.14,101.21a3.47,3.47,0,0,1-3.45,3.82H223a3.49,3.49,0,0,1-3.47-3.31c-3.83-63.2-117.08-70.45-138.08-71.25a3.48,3.48,0,0,1-3.33-3.47V66.85A3.47,3.47,0,0,1,81.6,63.38Z" transform="translate(0.02 -0.01)"/><path class="cls-3" d="M81.65,0C234.51,2.16,248.58,143.53,249.87,168.22a3.47,3.47,0,0,1-3.47,3.66H223.06a3.46,3.46,0,0,1-3.47-3.4C217.53,43.81,102.46,32.39,81.4,31.35a3.46,3.46,0,0,1-3.29-3.47V3.49A3.49,3.49,0,0,1,81.65,0Z" transform="translate(0.02 -0.01)"/><path d="M135.41,115.45c-23.14-23.53-53-22-57.3-21.7L46.86,109.38,0,226.57l7.81,7.82,62.46-62.46h0a23.48,23.48,0,1,1,7.33,7.51l0,0L15.6,241.33,23.42,250l117.2-46.88,15.62-31.25C156.55,167.45,158,138.46,135.41,115.45Z" transform="translate(0.02 -0.01)"/><path d="M364.47,210.62q-4.1,0-9.48-.36c-3.6-.24-7.29-.56-11-1s-7.33-.88-10.68-1.44-6.24-1.16-8.65-1.8V46a87.4,87.4,0,0,1,9.61-2q5.26-.84,10.92-1.44t11-.84c3.6-.16,6.91-.24,10-.24a145.72,145.72,0,0,1,25.56,2.16A68.91,68.91,0,0,1,413,50.76a40.26,40.26,0,0,1,14.52,13.31q5.4,8.27,5.4,20.49,0,13.41-6.84,22.88a34.81,34.81,0,0,1-18.36,13.06,56.31,56.31,0,0,1,13.2,4.81,38.65,38.65,0,0,1,10.56,8.05,34.53,34.53,0,0,1,7.08,12A50.78,50.78,0,0,1,441,162.32q0,23.55-18.72,35.92T364.47,210.62ZM341,115.34h31.67A103.44,103.44,0,0,0,389.43,114a39.92,39.92,0,0,0,13.8-4.78,25.36,25.36,0,0,0,9.24-9.33q3.34-5.85,3.36-14.94a25,25,0,0,0-3.6-13.74A27.37,27.37,0,0,0,402,62a50.62,50.62,0,0,0-15.72-5.13,120.16,120.16,0,0,0-20.16-1.56c-5.93,0-10.92.16-15,.48s-7.49.72-10.2,1.2Zm0,13.92V195q3.6.48,10.8,1.08t14.64.6a157.17,157.17,0,0,0,21.48-1.44,61,61,0,0,0,18.36-5.3A33.07,33.07,0,0,0,419,179.36q4.79-6.75,4.8-17.34,0-9.63-3.36-16a25.5,25.5,0,0,0-9.6-10.11,42.68,42.68,0,0,0-15.25-5.18,126.15,126.15,0,0,0-20-1.45Z" transform="translate(0.02 -0.01)"/><path d="M625.1,125.9q0,21.36-6.24,37.68a78.39,78.39,0,0,1-16.92,27.24,69.87,69.87,0,0,1-24.84,16.44,84.28,84.28,0,0,1-60,0,69.87,69.87,0,0,1-24.84-16.44,78.39,78.39,0,0,1-16.92-27.24q-6.24-16.32-6.24-37.68t6.24-37.56a78.59,78.59,0,0,1,16.92-27.12A69.87,69.87,0,0,1,517.1,44.78a84.28,84.28,0,0,1,60,0,69.87,69.87,0,0,1,24.84,16.44,78.59,78.59,0,0,1,16.92,27.12Q625.1,104.54,625.1,125.9Zm-17.28,0a97.43,97.43,0,0,0-4.32-30.12A66.33,66.33,0,0,0,591.26,73.1a52.36,52.36,0,0,0-19.08-14.28,66.38,66.38,0,0,0-50.16,0A52.36,52.36,0,0,0,502.94,73.1,66.33,66.33,0,0,0,490.7,95.78a97.43,97.43,0,0,0-4.32,30.12A97.43,97.43,0,0,0,490.7,156a66.33,66.33,0,0,0,12.24,22.68A53.58,53.58,0,0,0,522,193.1a64.92,64.92,0,0,0,50.16,0,53.58,53.58,0,0,0,19.08-14.4A66.33,66.33,0,0,0,603.5,156,97.43,97.43,0,0,0,607.82,125.9Z" transform="translate(0.02 -0.01)"/><path d="M763.34,42.86V57H710.06V209.18H693.74V57H640.46V42.86Z" transform="translate(0.02 -0.01)"/><path d="M857.82,195v14.16H763.26V42.86h16.32V195Z" transform="translate(0.02 -0.01)"/><path d="M1013.86,123.9q0,21.36-6.24,37.68a78.39,78.39,0,0,1-16.92,27.24,69.87,69.87,0,0,1-24.84,16.44,84.28,84.28,0,0,1-60,0A69.87,69.87,0,0,1,881,188.82a78.39,78.39,0,0,1-16.92-27.24q-6.24-16.32-6.24-37.68t6.24-37.56A78.59,78.59,0,0,1,881,59.22a69.87,69.87,0,0,1,24.84-16.44,84.28,84.28,0,0,1,60,0A69.87,69.87,0,0,1,990.7,59.22a78.59,78.59,0,0,1,16.92,27.12Q1013.86,102.54,1013.86,123.9Zm-17.28,0a97.43,97.43,0,0,0-4.32-30.12A66.33,66.33,0,0,0,980,71.1a52.36,52.36,0,0,0-19.08-14.28,66.38,66.38,0,0,0-50.16,0A52.36,52.36,0,0,0,891.7,71.1a66.33,66.33,0,0,0-12.24,22.68,97.43,97.43,0,0,0-4.32,30.12A97.43,97.43,0,0,0,879.46,154,66.33,66.33,0,0,0,891.7,176.7a53.58,53.58,0,0,0,19.08,14.4,64.92,64.92,0,0,0,50.16,0A53.58,53.58,0,0,0,980,176.7,66.33,66.33,0,0,0,992.26,154,97.43,97.43,0,0,0,996.58,123.9Z" transform="translate(0.02 -0.01)"/><path d="M1164,130.46h16.32v74.16q-4.58,1.92-17.88,4.92t-32.76,3a78.24,78.24,0,0,1-30.24-5.76,68.23,68.23,0,0,1-24.12-16.68q-10.21-10.92-16-27.12t-5.76-37.08q0-20.88,6.24-37.08a78.45,78.45,0,0,1,16.92-27.12A72.51,72.51,0,0,1,1101.62,45a79.4,79.4,0,0,1,30.24-5.76q18.47,0,30.48,4t17.52,7.56l-5.52,13.92q-6.72-4.8-18.24-7.8a98.88,98.88,0,0,0-25-3,61,61,0,0,0-23.52,4.56,52.11,52.11,0,0,0-19.2,13.68,65.66,65.66,0,0,0-12.84,22.56q-4.68,13.44-4.68,31.2a107.42,107.42,0,0,0,3.84,29.88,62.43,62.43,0,0,0,11.64,22.8,51.13,51.13,0,0,0,19.32,14.52q11.52,5,26.64,5a133.54,133.54,0,0,0,20.52-1.32q8.28-1.32,11.16-2.52Z" transform="translate(0.02 -0.01)"/></svg>