<svg id="图层_1" data-name="图层 1" xmlns="http://www.w3.org/2000/svg" viewBox="0 0 287.86 287.97"><defs><style>.cls-1{fill:#2f5597;}.cls-2{fill:#4471c4;}.cls-3{fill:#8faadc;}</style></defs><title>logo</title><path class="cls-1" d="M94.13,73c109.12,2.39,120.54,99.13,121.73,120.72a4,4,0,0,1-4,4.24H184a4,4,0,0,1-4-3.92c-2.25-75.37-69.51-84.75-86.21-85.91a4,4,0,0,1-3.73-4V77.08A4.06,4.06,0,0,1,94.13,73Z" transform="translate(0 -0.03)"/><path class="cls-2" d="M94,73c171.6,1.43,191.4,95,193.68,116.58a4,4,0,0,1-4,4.4H256.88a4,4,0,0,1-4-3.82C248.48,117.39,118,109,93.84,108.11a4,4,0,0,1-3.84-4V77A4,4,0,0,1,94,73Z" transform="translate(0 -0.03)"/><path class="cls-3" d="M94.08,0C270.16,2.5,286.36,165.35,287.85,193.79a4,4,0,0,1-4,4.21H257a4,4,0,0,1-4-3.92C250.6,50.48,118.05,37.33,93.79,36.12a4,4,0,0,1-3.79-4V4A4,4,0,0,1,94.08,0Z" transform="translate(0 -0.03)"/><path d="M156,133c-26.65-27.1-61-25.34-66-25L54,126,0,261l9,9,72-71.95h0a27,27,0,1,1,8.44,8.66l0,0L18,278l9,10,135-54,18-36C180.35,192.9,182.07,159.51,156,133Z" transform="translate(0 -0.03)"/></svg>