<svg data-name="图层 1" xmlns="http://www.w3.org/2000/svg" viewBox="0 0 287.86 287.97"><path d="M94.13 72.97c109.12 2.39 120.54 99.13 121.73 120.72a4 4 0 0 1-4 4.24H184a4 4 0 0 1-4-3.92c-2.25-75.37-69.51-84.75-86.21-85.91a4 4 0 0 1-3.73-4V77.05a4.06 4.06 0 0 1 4.07-4.08z" fill="#2f5597"/><path d="M94 72.97c171.6 1.43 191.4 95 193.68 116.58a4 4 0 0 1-4 4.4h-26.8a4 4 0 0 1-4-3.82c-4.4-72.77-134.88-81.16-159.04-82.05a4 4 0 0 1-3.84-4V76.97a4 4 0 0 1 4-4z" fill="#4471c4"/><path d="M94.08-.03c176.08 2.5 192.28 165.35 193.77 193.79a4 4 0 0 1-4 4.21H257a4 4 0 0 1-4-3.92C250.6 50.45 118.05 37.3 93.79 36.09a4 4 0 0 1-3.79-4V3.97a4 4 0 0 1 4.08-4z" fill="#8faadc"/><path d="M156 132.97c-26.65-27.1-61-25.34-66-25l-36 18-54 135 9 9 72-71.95a27 27 0 1 1 8.44 8.66L18 277.97l9 10 135-54 18-36c.35-5.1 2.07-38.49-24-65z"/></svg>